<svg xmlns="http://www.w3.org/2000/svg" width="1200" height="630" viewBox="0 0 1200 630" role="img" aria-labelledby="title description">
  <title id="title">Khelnamart social preview</title>
  <desc id="description">Every toy in Bangladesh, one click away.</desc>
  <defs>
    <linearGradient id="background" x1="86" y1="30" x2="1085" y2="631" gradientUnits="userSpaceOnUse">
      <stop stop-color="#2563eb" />
      <stop offset="0.55" stop-color="#1d4ed8" />
      <stop offset="1" stop-color="#1e3a8a" />
    </linearGradient>
    <linearGradient id="bag" x1="801" y1="166" x2="1018" y2="486" gradientUnits="userSpaceOnUse">
      <stop stop-color="#fff" />
      <stop offset="1" stop-color="#dbeafe" />
    </linearGradient>
    <filter id="shadow" x="-30%" y="-30%" width="160%" height="180%">
      <feDropShadow dx="0" dy="24" stdDeviation="24" flood-color="#10276b" flood-opacity="0.34" />
    </filter>
  </defs>

  <rect width="1200" height="630" rx="0" fill="url(#background)" />
  <circle cx="1132" cy="76" r="186" fill="#60a5fa" opacity="0.18" />
  <circle cx="1008" cy="603" r="235" fill="#f43f5e" opacity="0.13" />
  <circle cx="76" cy="595" r="170" fill="#fde047" opacity="0.13" />
  <path d="M0 512C189 438 316 548 487 496c171-51 251-159 417-130 133 23 193 101 296 87v177H0V512Z" fill="#60a5fa" opacity="0.11" />

  <g transform="translate(74 68)">
    <rect width="70" height="70" rx="19" fill="#fff" />
    <path d="M19 24a5 5 0 0 1 5-5h22a5 5 0 0 1 5 5v26a5 5 0 0 1-5 5H24a5 5 0 0 1-5-5V24Z" fill="#2563eb" />
    <path d="M27 19v-2a8 8 0 0 1 16 0v2" fill="none" stroke="#fde047" stroke-width="5" stroke-linecap="round" />
    <circle cx="29" cy="34" r="3" fill="#fff" />
    <circle cx="41" cy="34" r="3" fill="#fff" />
    <path d="M29 43c1.5 1.8 3.5 2.7 6 2.7s4.5-.9 6-2.7" fill="none" stroke="#fde047" stroke-width="3" stroke-linecap="round" />
    <text x="90" y="51" fill="#fff" font-family="DejaVu Sans" font-size="36" font-weight="700">Khelna<tspan fill="#fde047">mart</tspan></text>
  </g>

  <g transform="translate(74 198)">
    <rect width="430" height="42" rx="21" fill="#fff" opacity="0.15" />
    <circle cx="24" cy="21" r="6" fill="#fde047" />
    <text x="42" y="28" fill="#fff" font-family="DejaVu Sans" font-size="18" font-weight="700" letter-spacing="0.6">BANGLADESH'S LARGEST TOY MARKETPLACE</text>
  </g>

  <text x="74" y="310" fill="#fff" font-family="DejaVu Sans" font-size="62" font-weight="700">
    <tspan x="74" dy="0">Every toy in Bangladesh,</tspan>
    <tspan x="74" dy="76" fill="#fde047">one click away.</tspan>
  </text>
  <text x="78" y="446" fill="#dbeafe" font-family="DejaVu Sans" font-size="24">
    <tspan x="78" dy="0">Discover toys from local retailers, compare prices,</tspan>
    <tspan x="78" dy="36">and get the perfect pick delivered to your door.</tspan>
  </text>

  <g filter="url(#shadow)" transform="translate(793 132)">
    <path d="M44 72c0-24.3 19.7-44 44-44h161c24.3 0 44 19.7 44 44v286c0 24.3-19.7 44-44 44H88c-24.3 0-44-19.7-44-44V72Z" fill="url(#bag)" />
    <path d="M105 37V25c0-39 31.5-70.5 70.5-70.5S246 14 246 53" fill="none" stroke="#fde047" stroke-width="22" stroke-linecap="round" />
    <circle cx="125" cy="173" r="18" fill="#f43f5e" />
    <circle cx="216" cy="173" r="18" fill="#f43f5e" />
    <path d="M119 233c14 19 32 28.5 55 28.5s41-9.5 55-28.5" fill="none" stroke="#2563eb" stroke-width="15" stroke-linecap="round" />
    <g transform="translate(-39 287) rotate(-9)">
      <rect width="94" height="94" rx="20" fill="#f43f5e" />
      <circle cx="33" cy="38" r="8" fill="#fff" />
      <circle cx="64" cy="38" r="8" fill="#fff" />
      <path d="M30 63h37" stroke="#fff" stroke-width="8" stroke-linecap="round" />
    </g>
    <g transform="translate(253 277) rotate(10)">
      <rect width="92" height="92" rx="46" fill="#fde047" />
      <circle cx="46" cy="46" r="18" fill="#2563eb" />
      <circle cx="46" cy="46" r="7" fill="#fff" />
    </g>
  </g>

  <g opacity="0.9">
    <rect x="672" y="94" width="28" height="28" rx="6" fill="#fde047" transform="rotate(14 672 94)" />
    <circle cx="1110" cy="248" r="15" fill="#fda4af" />
    <path d="m714 516 13 23 26 5-18 19 3 27-24-12-24 12 4-27-19-19 26-5 13-23Z" fill="#fde047" />
    <path d="M1055 502h74v34h-74z" fill="#60a5fa" transform="rotate(-8 1055 502)" />
  </g>
</svg>
